<?xml version="1.0" encoding="iso-8859-1"?>
<!-- Generator: Adobe Illustrator 16.0.0, SVG Export Plug-In . SVG Version: 6.00 Build 0)  -->
<!DOCTYPE svg PUBLIC "-//W3C//DTD SVG 1.1//EN" "http://www.w3.org/Graphics/SVG/1.1/DTD/svg11.dtd">
<svg version="1.1" id="Capa_1" xmlns="http://www.w3.org/2000/svg" xmlns:xlink="http://www.w3.org/1999/xlink" x="0px" y="0px"
	 width="71.568px" height="71.568px" viewBox="0 0 71.568 71.568" style="enable-background:new 0 0 71.568 71.568;"
	 xml:space="preserve">
<g>
	<path d="M69.232,43.494h2.336v7.676h-2.336V43.494z M71.568,12.796h-2.336v7.675h2.336V12.796z M71.568,58.844h-2.336v2.336h-2.336
		v2.336h4.672V58.844z M71.568,28.144h-2.336v7.676h2.336V28.144z M69.232,5.12h2.336V0.448h-4.672v2.336h2.336V5.12z
		 M51.552,63.516h7.674V61.18h-7.674V63.516z M10.837,2.784h2.336V0.448H8.501V5.12h2.336V2.784z M59.221,0.448h-7.673v2.336h7.673
		V0.448z M10.837,12.796H8.501v7.675h2.336V12.796z M0,68.025c0-1.702,1.38-3.082,3.083-3.082c0.99,0,1.87,0.466,2.434,1.193
		c0.243-0.144,0.5-0.666,0.668-0.992c0.651-1.219,1.247-2.313,2.008-3.331c-1.431-2.094-3.16-4.546-4.753-6.811
		c-0.88-1.25-1.677-3.13-0.588-4.706c0.082,0,0.164,0,0.245,0c2.242,3.054,4.438,6.151,6.725,9.16
		c2.282-3.009,4.481-6.106,6.723-9.16c0.081,0,0.163,0,0.243,0c1.093,1.576,0.292,3.456-0.586,4.706
		c-1.596,2.265-3.322,4.719-4.749,6.811c0.76,1.02,1.355,2.11,2.006,3.331c0.173,0.326,0.43,0.844,0.67,0.992
		c0.563-0.728,1.444-1.193,2.434-1.193c1.703,0,3.083,1.378,3.083,3.082c0,1.484-1.053,2.724-2.45,3.016
		c-0.101,0.034-0.201,0.059-0.308,0.079c-0.262,0-0.525,0-0.785,0c-0.748-0.141-1.662-0.611-2.105-1.318
		c-0.332-0.526-0.539-1.225-0.785-1.861c-0.717-1.852-1.774-3.428-3.392-4.361c-1.621,0.934-2.679,2.51-3.393,4.361
		c-0.248,0.635-0.458,1.335-0.785,1.861c-0.445,0.71-1.36,1.182-2.108,1.318c-0.259,0-0.522,0-0.785,0
		c-0.105-0.021-0.205-0.05-0.303-0.079C1.053,70.749,0,69.51,0,68.025z M14.883,68.025c0,0.928,0.755,1.686,1.685,1.686
		s1.687-0.755,1.687-1.686c0-0.929-0.753-1.686-1.687-1.686S14.883,67.092,14.883,68.025z M1.394,68.025
		c0,0.928,0.755,1.686,1.689,1.686c0.929,0,1.685-0.755,1.685-1.686c0-0.929-0.755-1.686-1.685-1.686
		C2.153,66.34,1.394,67.092,1.394,68.025z M10.837,43.494H8.501v7.676h2.336V43.494z M10.837,28.144H8.501v7.676h2.336V28.144z
		 M20.849,63.516h7.676V61.18h-7.676V63.516z M28.525,0.448h-7.676v2.336h7.676V0.448z M38.978,44.865V32.473
		c-3.287-0.624-5.716-1.661-7.286-3.116s-2.354-3.471-2.354-6.049c0-2.302,0.845-4.377,2.534-6.228
		c1.69-1.85,4.057-2.787,7.105-2.819v-3.022h2.164v2.976c3.016,0.212,5.328,1.1,6.943,2.666c1.615,1.565,2.459,3.634,2.536,6.201
		h-3.978c-0.107-1.152-0.418-2.144-0.931-2.978c-0.954-1.53-2.479-2.331-4.567-2.409v11.07c3.514,0.988,5.896,1.911,7.156,2.775
		c2.046,1.425,3.068,3.534,3.068,6.324c0,4.033-1.312,6.892-3.936,8.591c-1.453,0.944-3.552,1.564-6.293,1.868v4.409H38.98v-4.409
		c-4.411-0.287-7.402-1.85-8.982-4.683c-0.865-1.531-1.293-3.6-1.293-6.207h4.021c0.122,2.078,0.45,3.59,0.985,4.546
		C34.661,43.688,36.415,44.648,38.978,44.865z M41.142,44.975c2.587-0.123,4.379-1.067,5.36-2.844
		c0.518-0.91,0.775-1.962,0.775-3.164c0-1.894-0.698-3.332-2.092-4.317c-0.801-0.577-2.151-1.121-4.044-1.638V44.975L41.142,44.975z
		 M38.978,28.333V17.649c-1.999,0.078-3.427,0.682-4.274,1.82c-0.849,1.135-1.273,2.323-1.273,3.566c0,1.502,0.5,2.677,1.504,3.524
		C35.934,27.408,37.284,28.001,38.978,28.333z M43.874,0.448h-7.673v2.336h7.673V0.448z M43.874,61.18h-7.673v2.336h7.673V61.18z"/>
</g>
<g>
</g>
<g>
</g>
<g>
</g>
<g>
</g>
<g>
</g>
<g>
</g>
<g>
</g>
<g>
</g>
<g>
</g>
<g>
</g>
<g>
</g>
<g>
</g>
<g>
</g>
<g>
</g>
<g>
</g>
</svg>
