<?xml version="1.0"?>
<svg xmlns="http://www.w3.org/2000/svg" height="512px" viewBox="0 -44 512.002 512" width="512px" class=""><g><path d="m486.445312 82.652344-12.097656-54.980469c-2.027344-9.1875-7.507812-17.042969-15.4375-22.109375-7.929687-5.070312-17.359375-6.75-26.550781-4.722656l-363.53125 79.980468h-31.78125c-20.429687 0-37.046875 16.617188-37.046875 37.042969v160.480469c0 5.523438 4.539062 10 10.0625 10s9.96875-4.476562 9.96875-10c0-.265625-.011719-.53125-.03125-.792969v-159.6875c0-9.398437 7.644531-17.042969 17.046875-17.042969h437.90625c9.398437 0 17.046875 7.644532 17.046875 17.042969v240.40625h-482c-5.523438 0-10 4.480469-10 10v19.953125c0 6.902344 1.902344 13.367188 5.207031 18.90625.058594.09375.109375.191406.164063.285156.019531.027344.039062.058594.058594.085938 6.515624 10.644531 18.25 17.761719 31.617187 17.761719h437.90625c12.679687 0 23.886719-6.402344 30.566406-16.140625.046875-.070313.097657-.136719.144531-.207032.023438-.03125.042969-.0625.066407-.097656 3.957031-5.890625 6.273437-12.976562 6.273437-20.59375v-270.359375c-.003906-16.414062-10.742187-30.363281-25.558594-35.210937zm-49.785156-62.28125c8.210938-1.804688 16.347656 3.398437 18.152344 11.601562l10.75 48.847656h-303.652344zm55.339844 367.847656c0 2.746094-.667969 5.332031-1.824219 7.632812-2.808593 5.570313-8.570312 9.410157-15.226562 9.410157h-437.898438c-6.65625 0-12.417969-3.839844-15.226562-9.410157-1.15625-2.300781-1.824219-4.886718-1.824219-7.632812v-9.945312h472zm0 0" data-original="#000000" class="active-path" data-old_color="#000000" fill="#FFFFFF"/><path d="m193.847656 258.082031c-5.523437 0-10 4.476563-10 10 0 5.523438 4.476563 10 10 10h56.613282c5.523437 0 10-4.476562 10-10 0-5.523437-4.476563-10-10-10zm0 0" data-original="#000000" class="active-path" data-old_color="#000000" fill="#FFFFFF"/><path d="m347.070312 278.082031c5.523438 0 10-4.476562 10-10 0-5.523437-4.476562-10-10-10h-56.613281c-5.519531 0-10 4.476563-10 10 0 5.523438 4.480469 10 10 10zm0 0" data-original="#000000" class="active-path" data-old_color="#000000" fill="#FFFFFF"/><path d="m443.683594 258.082031h-56.613282c-5.523437 0-10 4.476563-10 10 0 5.523438 4.476563 10 10 10h56.613282c5.523437 0 10-4.476562 10-10 0-5.523437-4.476563-10-10-10zm0 0" data-original="#000000" class="active-path" data-old_color="#000000" fill="#FFFFFF"/><path d="m253.699219 313.128906c0 5.519532 4.476562 10 10 10h179.984375c5.519531 0 10-4.480468 10-10 0-5.523437-4.480469-10-10-10h-179.984375c-5.523438 0-10 4.476563-10 10zm0 0" data-original="#000000" class="active-path" data-old_color="#000000" fill="#FFFFFF"/><path d="m56.582031 231.972656c1.785157 3.09375 5.089844 5 8.660157 5h30.007812l15.003906 25.984375c1.785156 3.09375 5.085938 5 8.660156 5 3.570313 0 6.871094-1.90625 8.660157-5l15-25.984375h30.007812c3.574219 0 6.875-1.90625 8.660157-5 1.785156-3.09375 1.785156-6.90625 0-10l-15.003907-25.984375 15.003907-25.988281c1.785156-3.09375 1.785156-6.90625 0-10-1.785157-3.09375-5.085938-5-8.660157-5h-30.007812l-15-25.984375c-1.789063-3.09375-5.089844-5-8.660157-5-3.574218 0-6.875 1.90625-8.660156 5l-15.003906 25.984375h-30.007812c-3.570313 0-6.875 1.90625-8.660157 5-1.785156 3.09375-1.785156 6.90625 0 10l15.003907 25.984375-15.003907 25.988281c-1.785156 3.09375-1.785156 6.90625 0 10zm35.210938-40.988281-9.230469-15.984375h18.460938c3.574218 0 6.875-1.90625 8.660156-5l9.226562-15.984375 9.230469 15.984375c1.785156 3.09375 5.085937 5 8.660156 5h18.460938l-9.230469 15.984375c-1.789062 3.09375-1.789062 6.90625 0 10l9.230469 15.988281h-18.460938c-3.574219 0-6.875 1.90625-8.660156 5l-9.230469 15.984375-9.226562-15.984375c-1.785156-3.09375-5.085938-5-8.660156-5h-18.460938l9.230469-15.988281c1.785156-3.09375 1.785156-6.90625 0-10zm0 0" data-original="#000000" class="active-path" data-old_color="#000000" fill="#FFFFFF"/><path d="m455.429688 141.140625c0-5.519531-4.476563-10-10-10h-179.21875c-5.523438 0-10 4.480469-10 10v50.46875c0 5.523437 4.476562 10 10 10h179.21875c5.523437 0 10-4.476563 10-10zm-20 40.46875h-159.21875v-30.46875h159.21875zm0 0" data-original="#000000" class="active-path" data-old_color="#000000" fill="#FFFFFF"/><path d="m1.691406 331.183594c2.332032 3.5625 6.894532 5.210937 10.972656 4.078125 4.199219-1.167969 7.214844-5.019531 7.328126-9.382813.238281-8.910156-11.046876-13.625-17.214844-7.15625-3.191406 3.351563-3.664063 8.601563-1.085938 12.460938zm0 0" data-original="#000000" class="active-path" data-old_color="#000000" fill="#FFFFFF"/></g> </svg>
