<svg height="512" viewBox="0 0 64 64" width="512" xmlns="http://www.w3.org/2000/svg"><g id="Certification"><path d="m3 3h58v40h-58z" fill="#ff7956"/><path d="m50.59 49.29 7.41 7.5-3.47.69-.7 3.52-9.25-9.35-.13-.12 2.22-2.31 3.8.68.09-.61z" fill="#9cdd05"/><path d="m7 7h50v32h-50z" fill="#fee9ab"/><path d="m53.72 43 .75 1.4-3.47 1.68-.44 3.21-.09.61-3.8-.68-2.22 2.31-.45.47-.45-.47-2.22-2.31-3.8.68-.09-.61-.44-3.21-3.47-1.68.75-1.4 1.07-2-1.07-2-.75-1.4 3.47-1.68.53-3.82 3.8.68 2.67-2.78 2.67 2.78 3.8-.68.53 3.82 3.47 1.68-.75 1.4-1.07 2z" fill="#ff9811"/><circle cx="44" cy="41" fill="#9cdd05" r="4"/><path d="m43.55 51.53-.13.12-9.25 9.35-.7-3.52-3.47-.69 7.41-7.5h.03l.09.61 3.8-.68z" fill="#9cdd05"/><path d="m61 2h-58a1 1 0 0 0 -1 1v40a1 1 0 0 0 1 1h29.624a.977.977 0 0 0 .468 1.3l2.993 1.444.3 2.161-7.094 7.179a1 1 0 0 0 .515 1.684l2.816.564.567 2.862a1 1 0 0 0 .693.764 1.019 1.019 0 0 0 .288.042 1 1 0 0 0 .711-.3l8.707-8.8a.95.95 0 0 0 .828 0l8.707 8.8a1 1 0 0 0 .711.3 1.019 1.019 0 0 0 .288-.042 1 1 0 0 0 .692-.764l.568-2.862 2.816-.564a1 1 0 0 0 .515-1.684l-7.094-7.179.3-2.161 2.988-1.444a.977.977 0 0 0 .469-1.3h5.624a1 1 0 0 0 1-1v-40a1 1 0 0 0 -1-1zm-5.576 35.291a1 1 0 0 0 -.516-.591l-2.993-1.444-.453-3.288a1 1 0 0 0 -1.162-.848l-3.273.581-2.3-2.394a1.029 1.029 0 0 0 -1.442 0l-2.3 2.394-3.285-.581a1 1 0 0 0 -1.166.848l-.453 3.288-2.988 1.444a.977.977 0 0 0 -.469 1.3h-24.624v-30h48v30h-.624a.993.993 0 0 0 .048-.709zm-20.641 21.666-.331-1.669a1 1 0 0 0 -.785-.786l-1.652-.331 5.253-5.316a.959.959 0 0 0 .436.025l3.273-.581 1.17 1.217zm19.55-2.457a1 1 0 0 0 -.785.786l-.331 1.669-7.364-7.441 1.17-1.217 3.273.581a.971.971 0 0 0 .436-.025l5.253 5.316zm-2.562-15.03 1.329 2.483-2.536 1.223a1 1 0 0 0 -.556.763l-.384 2.79-2.775-.493a1 1 0 0 0 -.9.291l-1.949 2.031-1.952-2.031a1 1 0 0 0 -.721-.306 1.034 1.034 0 0 0 -.175.015l-2.775.493-.384-2.79a1 1 0 0 0 -.556-.763l-2.537-1.224 1.328-2.479a1 1 0 0 0 0-.945l-1.328-2.481 2.536-1.223a1 1 0 0 0 .556-.763l.384-2.79 2.775.493a1 1 0 0 0 .9-.291l1.949-2.031 1.952 2.031a1 1 0 0 0 .9.291l2.775-.493.384 2.79a1 1 0 0 0 .556.763l2.533 1.224-1.328 2.479a1 1 0 0 0 -.001.945zm8.229.53h-5.678l-.536-1 .536-1h2.678a1 1 0 0 0 1-1v-32a1 1 0 0 0 -1-1h-50a1 1 0 0 0 -1 1v32a1 1 0 0 0 1 1h26.678l.536 1-.536 1h-29.678v-38h56z"/><path d="m44 36a5 5 0 1 0 5 5 5.006 5.006 0 0 0 -5-5zm0 8a3 3 0 1 1 3-3 3 3 0 0 1 -3 3z"/><path d="m24 10h16v2h-16z"/><path d="m20 14h24v2h-24z"/><path d="m12 20h41v2h-41z"/><path d="m12 26h41v2h-41z"/><path d="m18 32h8v2h-8z"/><path d="m12 32h4v2h-4z"/></g></svg>