<?xml version="1.0"?>
<svg xmlns="http://www.w3.org/2000/svg" viewBox="0 0 64 64" width="512" height="512"><g id="blance"><path d="M50,19H48v2a2,2,0,0,0-2,2v2a2,2,0,0,0,2,2h2v2H46v2h2v2h2V31a2,2,0,0,0,2-2V27a2,2,0,0,0-2-2H48V23h4V21H50Z"/><path d="M61,6H36.9a5,5,0,0,0-9.8,0H3A1,1,0,0,0,2,7v4a1,1,0,0,0,1,1H7.7L5.38,20.67a11,11,0,1,0,19.24,0L22.3,12H29V43.78L16.28,40.04A.863.863,0,0,0,16,40H10V38a1,1,0,0,0-1-1H3a1,1,0,0,0-1,1V60a1,1,0,0,0,1,1H9a1,1,0,0,0,1-1V58.39l10.68,3.56A1.185,1.185,0,0,0,21,62H36a.919.919,0,0,0,.33-.06L52,56.41a3,3,0,0,0,2-2.83v-.91a2.984,2.984,0,0,0-1.2-2.4,3.025,3.025,0,0,0-2.65-.48L35.86,54H35V12h6.7l-2.32,8.67a11,11,0,1,0,19.24,0L56.3,12H61a1,1,0,0,0,1-1V7A1,1,0,0,0,61,6ZM8,59H4V39H8ZM24,26a9,9,0,1,1-9-9A9.014,9.014,0,0,1,24,26ZM8.37,17.24,9.77,12H20.23l1.4,5.24a10.932,10.932,0,0,0-13.26,0ZM36,56a.863.863,0,0,0,.28-.04l14.44-4.25a1,1,0,0,1,1.28.96v.91a1,1,0,0,1-.67.95L35.83,60H21.16L10,56.28V42h5.86l15.42,4.54a1,1,0,0,1,.72.96V48a1,1,0,0,1-1,1H19a1,1,0,0,0-.49,1.87l9,5A.947.947,0,0,0,28,56ZM31,44.37V12h2V45.27a3.043,3.043,0,0,0-1.15-.65Zm2,5.85V54H31V51A2.974,2.974,0,0,0,33,50.22ZM29,51v3h-.74l-5.4-3ZM58,26a9,9,0,1,1-9-9A9.014,9.014,0,0,1,58,26ZM42.37,17.24,43.77,12H54.23l1.4,5.24a10.932,10.932,0,0,0-13.26,0ZM60,10H4V8H28a1,1,0,0,0,1-1,3,3,0,0,1,6,0,1,1,0,0,0,1,1H60Z"/><path d="M15,19a7,7,0,1,0,7,7A7.008,7.008,0,0,0,15,19Zm0,12a5,5,0,1,1,5-5A5.006,5.006,0,0,1,15,31Z"/><path d="M16,26.132V23H14v3.132l-1.445-.964-1.11,1.664,3,2a1,1,0,0,0,1.11,0l3-2-1.11-1.664Z"/></g></svg>
